<svg width="29" height="29" viewBox="0 0 29 29" fill="none" xmlns="http://www.w3.org/2000/svg">
<g clip-path="url(#clip0_246_4760)" filter="url(#filter0_d_246_4760)">
<path d="M14.905 8.84651L14.905 8.84646C14.9194 8.06035 15.2418 7.3113 15.8028 6.76049C16.3639 6.20969 17.1188 5.90116 17.905 5.90129L14.905 8.84651ZM14.905 8.84651L14.877 10.4213M14.905 8.84651L14.877 10.4213M6.75811 7.80857L6.89001 7.91846C8.76679 9.48211 10.7178 10.4182 12.7495 10.6952C12.7495 10.6952 12.7495 10.6952 12.7495 10.6952L14.3104 10.9072L6.75811 7.80857ZM6.75811 7.80857L6.72759 7.97751M6.75811 7.80857L6.72759 7.97751M6.72759 7.97751C6.42576 9.64819 6.5683 11.0709 7.1479 12.3018C7.72718 13.532 8.73827 14.5605 10.1558 15.4519L10.1558 15.452M6.72759 7.97751L10.1558 15.452M10.1558 15.452L11.9028 16.55L11.954 16.4685M10.1558 15.452L11.954 16.4685M11.954 16.4685L11.9028 16.55C11.972 16.5934 12.0294 16.6532 12.0702 16.724C12.1109 16.7948 12.1337 16.8745 12.1365 16.9562C12.1392 17.0378 12.122 17.1189 12.0862 17.1924C12.0504 17.2658 11.9972 17.3294 11.9311 17.3775L11.931 17.3775M11.954 16.4685L11.931 17.3775M11.931 17.3775L10.339 18.5405L10.1154 18.7039M11.931 17.3775L10.1154 18.7039M10.1154 18.7039L10.3918 18.7211M10.1154 18.7039L10.3918 18.7211M10.3918 18.7211C11.3449 18.7805 12.2529 18.7385 13.0095 18.5884L13.0096 18.5884M10.3918 18.7211L13.0096 18.5884M13.0096 18.5884C15.3886 18.1134 17.3745 16.9794 18.7652 15.2211M13.0096 18.5884L18.7652 15.2211M14.877 10.4213C14.8757 10.4918 14.8594 10.5612 14.8293 10.625C14.7993 10.6887 14.7561 10.7454 14.7026 10.7912C14.649 10.8371 14.5864 10.8712 14.5188 10.8911C14.4513 10.9111 14.3803 10.9166 14.3105 10.9072L14.877 10.4213ZM18.7652 15.2211C20.1557 13.463 20.945 11.0883 20.945 8.14229M18.7652 15.2211L20.945 8.14229M20.945 8.14229C20.945 7.99668 20.8714 7.78474 20.744 7.55722M20.945 8.14229L20.744 7.55722M20.744 7.55722C20.6142 7.32559 20.4215 7.06508 20.1673 6.82049M20.744 7.55722L20.1673 6.82049M20.1673 6.82049C19.6587 6.33088 18.8999 5.90129 17.905 5.90129L20.1673 6.82049ZM22.4978 5.53842C22.8818 5.48388 23.3285 5.34345 23.916 5.01105C23.6101 6.49526 23.4321 7.16764 22.7642 8.08336L22.745 8.10969V8.14229C22.745 11.9415 21.578 14.7567 19.8258 16.7397C18.0726 18.7238 15.7277 19.8813 13.3624 20.3532C11.7453 20.6759 9.7544 20.5728 7.99643 20.2106C7.11813 20.0296 6.30077 19.7846 5.61983 19.4974C5.03727 19.2517 4.56009 18.9775 4.22956 18.6904C4.66065 18.6482 5.4114 18.5535 6.24366 18.3598C7.24355 18.1272 8.37173 17.7494 9.20306 17.141L9.31918 17.056L9.19904 16.9768C9.15724 16.9492 9.11178 16.9196 9.06301 16.8879C8.30477 16.3938 6.74648 15.3786 5.73155 13.5166C4.66714 11.5637 4.19257 8.66295 5.91362 4.42592C7.57889 6.34347 9.2726 7.66001 10.995 8.3668L10.995 8.36681C11.5766 8.60536 11.9426 8.72373 12.2318 8.79141C12.4509 8.84265 12.6261 8.86463 12.8117 8.88794C12.8703 8.89529 12.93 8.90278 12.9924 8.91135L13.2872 8.95189L13.1059 8.77077C13.131 7.8414 13.4254 6.93895 13.9539 6.17331C14.4904 5.39606 15.2442 4.79434 16.1211 4.4435C16.9979 4.09265 17.9588 4.00828 18.8833 4.20093C19.8079 4.39359 20.6551 4.85471 21.3189 5.52657L21.3485 5.55658L21.3907 5.55628C21.4934 5.55556 21.5972 5.55908 21.7036 5.56269C21.9483 5.57098 22.2068 5.57974 22.4978 5.53842Z" fill="black" stroke="white" stroke-width="0.2"/>
</g>
<defs>
<filter id="filter0_d_246_4760" x="-2" y="0" width="32" height="32" filterUnits="userSpaceOnUse" color-interpolation-filters="sRGB">
<feFlood flood-opacity="0" result="BackgroundImageFix"/>
<feColorMatrix in="SourceAlpha" type="matrix" values="0 0 0 0 0 0 0 0 0 0 0 0 0 0 0 0 0 0 127 0" result="hardAlpha"/>
<feOffset dy="4"/>
<feGaussianBlur stdDeviation="2"/>
<feComposite in2="hardAlpha" operator="out"/>
<feColorMatrix type="matrix" values="0 0 0 0 0 0 0 0 0 0 0 0 0 0 0 0 0 0 0.25 0"/>
<feBlend mode="normal" in2="BackgroundImageFix" result="effect1_dropShadow_246_4760"/>
<feBlend mode="normal" in="SourceGraphic" in2="effect1_dropShadow_246_4760" result="shape"/>
</filter>
<clipPath id="clip0_246_4760">
<rect width="24" height="24" fill="white" transform="translate(2)"/>
</clipPath>
</defs>
</svg>
